<svg width="40" height="40" viewBox="0 0 40 40" fill="none" xmlns="http://www.w3.org/2000/svg">
<path d="M34.0015 11.8158V33.459C34.0015 35.2269 32.563 36.6654 30.795 36.6654H16.1659C14.3979 36.6654 12.9595 35.2269 12.9595 33.459V19.3861C13.4169 19.4622 13.8834 19.5116 14.3623 19.5116C14.7018 19.5116 15.0351 19.4863 15.3643 19.4474V33.459C15.3643 33.9008 15.7238 34.2605 16.1659 34.2605H30.795C31.237 34.2605 31.5966 33.9008 31.5966 33.459V11.8158C31.5966 11.3737 31.2369 11.0142 30.795 11.0142H22.8597C22.8597 10.1782 22.7341 9.37241 22.5089 8.60943H30.795C32.563 8.60937 34.0015 10.0478 34.0015 11.8158ZM14.2284 18.4566C10.0584 18.4566 6.66602 15.0642 6.66602 10.8944C6.66608 6.72437 10.0584 3.33203 14.2284 3.33203C18.3983 3.33203 21.7907 6.72437 21.7907 10.8944C21.7907 15.0642 18.3983 18.4566 14.2284 18.4566ZM14.2284 16.8533C17.514 16.8533 20.1874 14.1805 20.1874 10.8944C20.1874 7.60813 17.5144 4.93526 14.2284 4.93526C10.9422 4.93526 8.26925 7.60813 8.26925 10.8944C8.26925 14.1805 10.9426 16.8533 14.2284 16.8533ZM18.7638 11.696C19.2063 11.696 19.5654 11.3369 19.5654 10.8945C19.5654 10.452 19.2063 10.0929 18.7638 10.0929H15.03V6.94614C15.03 6.50366 14.6709 6.14456 14.2284 6.14456C13.7859 6.14456 13.4268 6.50366 13.4268 6.94614V10.8945C13.4268 11.3369 13.7859 11.696 14.2284 11.696H18.7638Z" fill="#377D22"/>
<path d="M27.75 18.457V29.3737H25.9527V24.5986H20.7973V29.3737H19V18.457H20.7973V23.1378H25.9527V18.457H27.75Z" fill="#377D22"/>
</svg>
